<?xml version="1.0" encoding="utf-8"?>
<!-- Generator: Adobe Illustrator 23.1.0, SVG Export Plug-In . SVG Version: 6.00 Build 0)  -->
<svg version="1.1" id="Vrstva_1" xmlns="http://www.w3.org/2000/svg" xmlns:xlink="http://www.w3.org/1999/xlink" x="0px" y="0px"
	 viewBox="0 0 202.4 102" style="enable-background:new 0 0 202.4 102;" xml:space="preserve">
<style type="text/css">
	.st0{fill:#FFFFFF;}
</style>
<polygon class="st0" points="67.8,39.4 67.8,63 88.2,51.2 "/>
<path class="st0" d="M0,102l29.7-17.1c-8.3-2.8-14.3-8.9-14.4-19.6V30.1h15.3v34.5c0.2,7,3.9,11.4,11.1,11.4c2,0,3.8-0.4,5.2-1
	l1.6-0.9c2.7-1.9,4.1-5.2,4.2-9.5V30.5h0L0,0V102z"/>
<polygon class="st0" points="102.3,30.8 108.4,30.8 108.4,32.6 104.1,39.4 108.5,39.4 108.5,41 102.1,41 102.1,39.1 106.3,32.3 
	102.3,32.3 "/>
<path class="st0" d="M110.2,41l2.8-10.2h2.8l2.8,10.2h-2.2l-0.6-2.3h-2.9l-0.6,2.3H110.2z M116.4,28.7l-2,1.5H113l1.3-1.5H116.4z
	 M114.3,32.7L114.3,32.7l-1,4.4h2L114.3,32.7z"/>
<path class="st0" d="M120.9,30.8h3.8c2,0,2.7,1.2,2.7,3.1c0,1.2-0.3,3-2.8,3H123V41h-2.1V30.8z M123,35.2h1.2c0.6,0,1.1-0.7,1.1-1.4
	c0-0.8-0.2-1.5-1.2-1.5H123V35.2z"/>
<path class="st0" d="M128.5,41l2.8-10.2h2.8L137,41h-2.3l-0.6-2.3h-2.9l-0.6,2.3H128.5z M132.7,32.7L132.7,32.7l-1,4.4h2L132.7,32.7
	z"/>
<path class="st0" d="M139.3,30.8h3.6c2.8,0,3.3,1.9,3.3,5c0,1.6,0.2,5.2-3.4,5.2h-3.5V30.8z M141.4,39.4h1c1.3,0,1.6-1,1.6-3.5
	c0-1.9,0-3.5-1.5-3.5h-1.1V39.4z"/>
<path class="st0" d="M149,35.9c0-2.7,0-5.3,3.5-5.3c3.5,0,3.5,2.6,3.5,5.3c0,2.7,0,5.3-3.5,5.3C149,41.1,149,38.5,149,35.9
	 M153.9,35.9c0-2.6-0.2-3.8-1.4-3.8c-1.2,0-1.4,1.1-1.4,3.8c0,2.6,0.2,3.7,1.4,3.7C153.8,39.6,153.9,38.5,153.9,35.9"/>
<path class="st0" d="M159,35.9c0-2.7,0-5.3,3.5-5.3c2.2,0,3.1,1.2,3,3.4h-2.1c0-1.4-0.2-1.9-0.9-1.9c-1.2,0-1.4,1.1-1.4,3.8
	c0,2.6,0.2,3.7,1.4,3.7c1,0,0.9-1.3,1-2.1h2.1c0,2.7-1.1,3.6-3.1,3.6C159,41.1,159,38.5,159,35.9 M163.4,28.7h1.6l-1.4,1.5h-2.3
	l-1.4-1.5h1.6l1,0.8L163.4,28.7z"/>
<polygon class="st0" points="168.2,41 168.2,30.8 173.8,30.8 173.8,32.3 170.3,32.3 170.3,34.8 173.5,34.8 173.5,36.4 170.3,36.4 
	170.3,39.4 173.9,39.4 173.9,41 "/>
<path class="st0" d="M179.3,41.1c-2.6,0-3.1-1.6-3-3.3h2.1c0,1,0,1.8,1.2,1.8c0.7,0,1.1-0.5,1.1-1.2c0-1.8-4.3-2-4.3-5
	c0-1.6,0.8-2.9,3.4-2.9c2.1,0,3.1,0.9,3,3.1h-2.1c0-0.8-0.1-1.5-1-1.5c-0.7,0-1.1,0.4-1.1,1.1c0,1.9,4.3,1.8,4.3,5
	C182.9,40.8,180.9,41.1,179.3,41.1"/>
<polygon class="st0" points="190.2,30.8 192.6,30.8 189.7,35.3 192.6,41 190.1,41 187.7,35.7 187.7,35.7 187.7,41 185.5,41 
	185.5,30.8 187.7,30.8 187.7,35.1 187.7,35.1 "/>
<path class="st0" d="M194,41l2.8-10.2h2.8l2.8,10.2h-2.2l-0.6-2.3h-2.9l-0.6,2.3H194z M200.2,28.7l-2,1.5h-1.5l1.3-1.5H200.2z
	 M198.1,32.7L198.1,32.7l-1,4.4h2L198.1,32.7z"/>
<path class="st0" d="M109.2,51.2v7.2c0,1.5-0.9,3.1-3.5,3.1c-2.3,0-3.5-1.2-3.5-3.1v-7.2h2.1v7.1c0,1.3,0.5,1.8,1.3,1.8
	c0.9,0,1.3-0.6,1.3-1.8v-7.1H109.2z"/>
<polygon class="st0" points="112.2,61.4 112.2,51.2 115.1,51.2 117.8,58.2 117.8,58.2 117.8,51.2 119.8,51.2 119.8,61.4 117,61.4 
	114.3,53.9 114.2,53.9 114.2,61.4 "/>
<rect x="122.9" y="51.2" class="st0" width="2.1" height="10.2"/>
<polygon class="st0" points="127.3,51.2 129.5,51.2 131.1,58.6 131.1,58.6 132.9,51.2 135,51.2 132.3,61.4 129.8,61.4 "/>
<polygon class="st0" points="137.2,61.4 137.2,51.2 142.8,51.2 142.8,52.7 139.4,52.7 139.4,55.3 142.5,55.3 142.5,56.8 139.4,56.8 
	139.4,59.8 142.9,59.8 142.9,61.4 "/>
<path class="st0" d="M147.7,61.4h-2.1V51.2h3.9c1.5,0,2.4,0.9,2.4,2.7c0,1.3-0.5,2.3-1.9,2.5v0c0.5,0.1,1.9,0.2,1.9,2
	c0,0.6,0,2.6,0.2,3H150c-0.3-0.6-0.2-1.3-0.2-2c0-1.2,0.1-2.2-1.5-2.2h-0.6V61.4z M147.7,55.6h0.9c0.9,0,1.1-0.8,1.1-1.5
	c0-1-0.4-1.3-1.1-1.3h-0.9V55.6z"/>
<polygon class="st0" points="154.3,51.2 160.5,51.2 160.5,53 156.2,59.8 160.6,59.8 160.6,61.4 154.1,61.4 154.1,59.5 158.4,52.7 
	154.3,52.7 "/>
<rect x="163" y="51.2" class="st0" width="2.1" height="10.2"/>
<polygon class="st0" points="174.3,51.2 174.3,52.9 171.9,52.9 171.9,61.4 169.8,61.4 169.8,52.9 167.4,52.9 167.4,51.2 "/>
<path class="st0" d="M175,61.4l2.8-10.2h2.8l2.8,10.2h-2.2l-0.6-2.3h-2.9l-0.6,2.3H175z M179.1,53.1L179.1,53.1l-1,4.4h2L179.1,53.1
	z"/>
<polygon class="st0" points="101.9,71.6 104.1,71.6 105.7,79 105.7,79 107.5,71.6 109.6,71.6 106.9,81.8 104.4,81.8 "/>
<path class="st0" d="M116.2,71.6h3.8c1.9,0,2.7,1.2,2.7,3c0,1.2-0.3,3-2.8,3h-1.6v4.1h-2.1V71.6z M118.3,76.1h1.2
	c0.6,0,1.1-0.7,1.1-1.4c0-0.8-0.2-1.5-1.2-1.5h-1.1V76.1z"/>
<polygon class="st0" points="124.3,81.8 124.3,71.6 126.4,71.6 126.4,80.1 129.6,80.1 129.6,81.8 "/>
<polygon class="st0" points="131.4,71.6 137.5,71.6 137.5,73.4 133.3,80.2 137.6,80.2 137.6,81.8 131.2,81.8 131.2,79.9 135.5,73.1 
	131.4,73.1 "/>
<polygon class="st0" points="140.1,81.8 140.1,71.6 143,71.6 145.7,78.6 145.7,78.6 145.7,71.6 147.7,71.6 147.7,81.8 144.9,81.8 
	142.1,74.3 142.1,74.3 142.1,81.8 "/>
<rect x="150.8" y="71.6" class="st0" width="2.1" height="10.2"/>
</svg>
